<?xml version="1.0" encoding="utf-8"?>
<!-- Generator: Adobe Illustrator 18.1.1, SVG Export Plug-In . SVG Version: 6.00 Build 0)  -->
<svg version="1.1" id="Capa_1" xmlns="http://www.w3.org/2000/svg" xmlns:xlink="http://www.w3.org/1999/xlink" x="0px" y="0px"
	 viewBox="0 0 1400 980" enable-background="new 0 0 1400 980" xml:space="preserve">
<rect x="44.8" y="46.9" fill="#47A18D" width="387.5" height="393.9"/>
<rect x="507.2" y="46.9" fill="#CF7040" width="387.5" height="393.9"/>
<rect x="969.6" y="46.9" fill="#E0A62F" width="387.5" height="393.9"/>
<rect x="44.8" y="491.1" fill="#50A7B7" width="387.5" height="393.9"/>
<rect x="507.2" y="491.1" fill="#4E697E" width="387.5" height="393.9"/>
<rect x="969.6" y="491.1" fill="#50A7B7" width="387.5" height="393.9"/>
<g>
	<g>
		<g>
			<path fill="#4E697E" d="M718.2,918.9c0.5,0,0.9,0.4,0.9,0.4l-7.8,16.8c-0.9,0-2.9,0.1-3.4,0.1c-0.5,0-0.9-0.4-0.9-0.4l-2.7-16.8
				c1.6,0,3.7-0.1,4.3-0.1c0.5,0,0.9,0.4,0.9,0.4l0.8,8.2c0.1,0.7,0.1,1.7,0,2.7c0.3-1.1,0.6-2.2,0.8-2.9l3.3-8.3
				C715.8,919,717.6,918.9,718.2,918.9L718.2,918.9z"/>
		</g>
		<g>
			<path fill="#4E697E" d="M726.3,927.1c0,1.8-1,3-3.6,3.6l-2.7,0.5c0.2,1.1,0.9,1.7,2.1,1.7c1.5,0,2.4-1.1,2.4-1.1s0.7,0.4,0.7,1.3
				c0,1.5-2.3,3.2-5,3.2c-2.8,0-4.5-1.7-4.5-4.7c0-3.4,2.4-8,6.7-8C724.8,923.6,726.3,925,726.3,927.1L726.3,927.1z M721.8,928.9
				c0.6-0.2,0.7-0.6,0.7-1.2c0-0.5-0.2-1.3-0.7-1.3c-1.1,0-1.5,1.7-1.7,3L721.8,928.9z"/>
		</g>
		<g>
			<path fill="#4E697E" d="M733.4,923.6c2.2,0,3.8,1.1,3.8,2.6c0,1.9-2.2,2.5-2.2,2.5s-0.7-2-2.2-2c-1,0-1.6,1-1.6,3.2
				c0,2,0.5,3,1.9,3c1.4,0,2.2-0.9,2.2-0.9s0.7,0.4,0.7,1.3c0,1.5-2.2,3-4.8,3c-2.8,0-4.5-1.7-4.5-4.6
				C726.6,928.2,729.1,923.6,733.4,923.6L733.4,923.6z"/>
		</g>
		<g>
			<path fill="#4E697E" d="M743.8,920.9c0.5,0,0.9,0.4,0.9,0.4l-0.4,2.6h2.7l-0.6,1.9c-0.2,0.6-0.5,1-1.1,1h-1.4l-0.8,5
				c-0.1,0.8,0,1.2,0.6,1.2c0.5,0,1-0.3,1-0.3s0.8,0.4,0.8,1.2c0,1.2-1.7,2.4-3.9,2.4c-2.3,0-3.3-1.4-2.9-3.9l0.9-5.6h-1.5l0.6-2
				c0.2-0.5,0.6-0.9,1.1-0.9h0.7l0.9-2.4C742.3,921.2,743.3,920.9,743.8,920.9L743.8,920.9z"/>
		</g>
		<g>
			<path fill="#4E697E" d="M756.9,927.1c0,1.8-1,3-3.6,3.6l-2.7,0.5c0.2,1.1,0.9,1.7,2.1,1.7c1.5,0,2.5-1.1,2.5-1.1s0.7,0.4,0.7,1.3
				c0,1.5-2.3,3.2-5,3.2c-2.8,0-4.5-1.7-4.5-4.7c0-3.4,2.4-8,6.7-8C755.5,923.6,756.9,925,756.9,927.1L756.9,927.1z M752.4,928.9
				c0.6-0.2,0.7-0.6,0.7-1.2c0-0.5-0.2-1.3-0.7-1.3c-1.1,0-1.5,1.7-1.7,3L752.4,928.9z"/>
		</g>
		<g>
			<path fill="#4E697E" d="M767.8,927.1c0,1.8-1,3-3.6,3.6l-2.7,0.5c0.2,1.1,0.9,1.7,2.1,1.7c1.5,0,2.4-1.1,2.4-1.1s0.8,0.4,0.8,1.3
				c0,1.5-2.3,3.2-5,3.2c-2.8,0-4.5-1.7-4.5-4.7c0-3.4,2.4-8,6.7-8C766.3,923.6,767.8,925,767.8,927.1L767.8,927.1z M763.3,928.9
				c0.6-0.2,0.7-0.6,0.7-1.2c0-0.5-0.2-1.3-0.7-1.3c-1.1,0-1.5,1.7-1.7,3L763.3,928.9z"/>
		</g>
		<g>
			<path fill="#4E697E" d="M776.7,931.7c0,0,0.9,0.8,0.9,2.2c0,1.9-1.6,2.4-2.9,2.4c-1.7,0-3-0.8-4.3-1.3c-0.4,0.4-0.7,0.8-1.1,1.3
				c0,0-1.9,0-1.9-1.4c0-1.6,2.7-4.4,5.6-7.5c-0.3-0.1-0.7-0.1-0.9-0.1c-1.6,0-2.3,0.8-2.3,0.8s-0.8-1-0.8-2.2
				c0.1-1.8,1.8-2.2,3.1-2.2c1.4,0,2.4,0.5,3.4,1l0.8-1c0,0,2,0.1,2,1.4c0,1.6-2.6,4.3-5.4,7.3c0.6,0.2,1.2,0.3,1.7,0.3
				C776,932.6,776.7,931.7,776.7,931.7L776.7,931.7z"/>
		</g>
		<g>
			<path fill="#4E697E" d="M789.3,935.2c-0.7,4.3-3.6,6.4-7.3,6.4c-2.4,0-4.1-1.2-4.1-2.7c0-0.9,0.8-1.4,0.8-1.4s0.8,0.7,2.4,0.7
				c1.5,0,3.5-0.6,3.9-2.9l0.3-1.7c-1,1.4-2.3,2.6-4,2.6c-1.9,0-2.7-1.5-2.2-4.7l0.5-3.4c0.3-2.1,0.4-3.8,0.4-3.8
				c1.3-0.2,3.1-0.9,3.7-0.9c0.5,0,0.9,0.4,0.9,0.4l-0.7,4.2l-0.6,3.9c-0.1,0.4,0,0.6,0.3,0.6c1.6,0,2.4-4.5,2.4-4.5
				c0.3-2.1,0.4-3.8,0.4-3.8c1.3-0.2,3.1-0.9,3.7-0.9c0.5,0,0.9,0.4,0.9,0.4l-0.7,4.2L789.3,935.2z"/>
		</g>
	</g>
	<g>
		<path fill="#4E697E" d="M608.9,924.3h4.2c0.9,0,1.7,0.1,2.2,0.2c0.7,0.2,1.2,0.5,1.7,1c0.5,0.5,0.8,1.1,1.1,1.8
			c0.2,0.7,0.4,1.6,0.4,2.7c0,0.9-0.1,1.7-0.3,2.4c-0.3,0.8-0.7,1.5-1.2,2c-0.4,0.4-0.9,0.7-1.6,0.9c-0.5,0.2-1.2,0.2-2,0.2h-4.3
			V924.3z M611.2,926.2v7.5h1.7c0.6,0,1.1,0,1.4-0.1c0.4-0.1,0.7-0.3,0.9-0.5c0.2-0.2,0.4-0.6,0.6-1.1c0.2-0.5,0.2-1.2,0.2-2.1
			c0-0.9-0.1-1.6-0.2-2c-0.2-0.5-0.4-0.8-0.7-1.1c-0.3-0.3-0.6-0.4-1.1-0.5c-0.3-0.1-0.9-0.1-1.9-0.1H611.2z"/>
		<path fill="#4E697E" d="M624.8,933l2.2,0.4c-0.3,0.8-0.7,1.4-1.3,1.8c-0.6,0.4-1.4,0.6-2.3,0.6c-1.4,0-2.5-0.5-3.2-1.4
			c-0.5-0.7-0.8-1.7-0.8-2.8c0-1.4,0.4-2.4,1.1-3.2c0.7-0.8,1.6-1.2,2.7-1.2c1.2,0,2.2,0.4,2.9,1.2c0.7,0.8,1,2,1,3.7h-5.5
			c0,0.6,0.2,1.1,0.5,1.5c0.3,0.4,0.8,0.5,1.3,0.5c0.3,0,0.6-0.1,0.9-0.3S624.7,933.5,624.8,933z M624.9,930.8
			c0-0.6-0.2-1.1-0.5-1.4c-0.3-0.3-0.7-0.5-1.1-0.5c-0.5,0-0.9,0.2-1.2,0.5c-0.3,0.3-0.5,0.8-0.5,1.4H624.9z"/>
		<path fill="#4E697E" d="M627.8,933.3l2.2-0.3c0.1,0.4,0.3,0.7,0.6,1c0.3,0.2,0.7,0.3,1.2,0.3c0.6,0,1-0.1,1.3-0.3
			c0.2-0.1,0.3-0.3,0.3-0.6c0-0.2-0.1-0.3-0.2-0.4c-0.1-0.1-0.4-0.2-0.7-0.3c-1.8-0.4-2.9-0.7-3.3-1.1c-0.7-0.4-1-1.1-1-1.9
			c0-0.7,0.3-1.3,0.8-1.8c0.6-0.5,1.4-0.7,2.6-0.7c1.1,0,2,0.2,2.5,0.5c0.5,0.4,0.9,0.9,1.1,1.6l-2.1,0.4c-0.1-0.3-0.3-0.6-0.5-0.7
			c-0.2-0.2-0.6-0.3-1-0.3c-0.6,0-1,0.1-1.2,0.2c-0.2,0.1-0.2,0.3-0.2,0.4c0,0.2,0.1,0.3,0.2,0.4c0.2,0.1,0.9,0.3,2,0.6
			c1.2,0.3,2,0.6,2.4,1c0.5,0.4,0.7,0.9,0.7,1.6c0,0.8-0.3,1.4-0.9,1.9c-0.6,0.5-1.6,0.8-2.8,0.8c-1.1,0-2-0.2-2.7-0.7
			C628.4,934.7,628,934.1,627.8,933.3z"/>
		<path fill="#4E697E" d="M637,926.3v-2h2.2v2H637z M637,935.7v-8.2h2.2v8.2H637z"/>
		<path fill="#4E697E" d="M640.9,936.2l2.5,0.3c0,0.3,0.1,0.5,0.3,0.6c0.2,0.2,0.5,0.2,1,0.2c0.6,0,1-0.1,1.3-0.3
			c0.2-0.1,0.3-0.3,0.4-0.5c0.1-0.2,0.1-0.5,0.1-1v-1.2c-0.7,0.9-1.5,1.3-2.5,1.3c-1.1,0-2-0.5-2.6-1.4c-0.5-0.7-0.8-1.7-0.8-2.8
			c0-1.4,0.3-2.4,1-3.2c0.7-0.7,1.5-1.1,2.5-1.1c1,0,1.9,0.4,2.5,1.3v-1.2h2v7.4c0,1-0.1,1.7-0.2,2.2c-0.2,0.5-0.4,0.9-0.7,1.1
			c-0.3,0.3-0.7,0.5-1.2,0.6c-0.5,0.2-1.1,0.2-1.8,0.2c-1.4,0-2.4-0.2-3-0.7c-0.6-0.5-0.9-1.1-0.9-1.8
			C640.9,936.4,640.9,936.3,640.9,936.2z M642.9,931.4c0,0.9,0.2,1.5,0.5,1.9c0.3,0.4,0.8,0.6,1.3,0.6c0.5,0,1-0.2,1.3-0.6
			c0.4-0.4,0.5-1,0.5-1.8c0-0.9-0.2-1.5-0.5-1.9c-0.4-0.4-0.8-0.6-1.3-0.6c-0.5,0-1,0.2-1.3,0.6C643,929.9,642.9,930.5,642.9,931.4z
			"/>
		<path fill="#4E697E" d="M658,935.7h-2.2v-4.2c0-0.9,0-1.5-0.1-1.7s-0.2-0.5-0.5-0.6c-0.2-0.1-0.5-0.2-0.8-0.2
			c-0.4,0-0.7,0.1-1,0.3c-0.3,0.2-0.5,0.5-0.6,0.8c-0.1,0.3-0.2,1-0.2,1.9v3.7h-2.2v-8.2h2v1.2c0.7-0.9,1.6-1.4,2.7-1.4
			c0.5,0,0.9,0.1,1.3,0.3c0.4,0.2,0.7,0.4,0.9,0.7c0.2,0.3,0.3,0.6,0.4,0.9c0.1,0.3,0.1,0.8,0.1,1.5V935.7z"/>
		<path fill="#4E697E" d="M664.6,933l2.2,0.4c-0.3,0.8-0.7,1.4-1.3,1.8c-0.6,0.4-1.4,0.6-2.3,0.6c-1.4,0-2.5-0.5-3.2-1.4
			c-0.5-0.7-0.8-1.7-0.8-2.8c0-1.4,0.4-2.4,1.1-3.2c0.7-0.8,1.6-1.2,2.7-1.2c1.2,0,2.2,0.4,2.9,1.2c0.7,0.8,1,2,1,3.7h-5.5
			c0,0.6,0.2,1.1,0.5,1.5c0.3,0.4,0.8,0.5,1.3,0.5c0.3,0,0.6-0.1,0.9-0.3C664.3,933.8,664.5,933.5,664.6,933z M664.8,930.8
			c0-0.6-0.2-1.1-0.5-1.4c-0.3-0.3-0.7-0.5-1.1-0.5c-0.5,0-0.9,0.2-1.2,0.5c-0.3,0.3-0.5,0.8-0.5,1.4H664.8z"/>
		<path fill="#4E697E" d="M675.9,935.7h-2v-1.2c-0.3,0.5-0.7,0.8-1.2,1c-0.5,0.2-0.9,0.3-1.4,0.3c-0.9,0-1.8-0.4-2.4-1.1
			c-0.7-0.8-1-1.8-1-3.2c0-1.4,0.3-2.5,1-3.2c0.7-0.7,1.5-1.1,2.5-1.1c0.9,0,1.7,0.4,2.4,1.1v-4.1h2.2V935.7z M670.1,931.4
			c0,0.9,0.1,1.5,0.4,1.9c0.4,0.6,0.8,0.9,1.5,0.9c0.5,0,0.9-0.2,1.3-0.6c0.4-0.4,0.5-1.1,0.5-1.9c0-0.9-0.2-1.6-0.5-2
			s-0.8-0.6-1.3-0.6c-0.5,0-0.9,0.2-1.3,0.6C670.3,929.9,670.1,930.5,670.1,931.4z"/>
		<path fill="#4E697E" d="M681.7,935.7v-11.4h2.2v4.1c0.7-0.8,1.5-1.1,2.4-1.1c1,0,1.8,0.4,2.5,1.1c0.7,0.7,1,1.8,1,3.1
			c0,1.4-0.3,2.5-1,3.2c-0.7,0.8-1.5,1.1-2.4,1.1c-0.5,0-0.9-0.1-1.4-0.4c-0.5-0.2-0.9-0.6-1.2-1v1.2H681.7z M683.9,931.4
			c0,0.9,0.1,1.5,0.4,1.9c0.4,0.6,0.9,0.9,1.5,0.9c0.5,0,0.9-0.2,1.2-0.6c0.3-0.4,0.5-1.1,0.5-1.9c0-0.9-0.2-1.6-0.5-2
			c-0.3-0.4-0.8-0.6-1.3-0.6c-0.5,0-1,0.2-1.3,0.6S683.9,930.5,683.9,931.4z"/>
		<path fill="#4E697E" d="M690.2,927.4h2.3l2,5.8l1.9-5.8h2.3l-2.9,7.9l-0.5,1.4c-0.2,0.5-0.4,0.8-0.5,1.1c-0.2,0.3-0.4,0.5-0.6,0.6
			c-0.2,0.2-0.5,0.3-0.8,0.4c-0.3,0.1-0.7,0.1-1.1,0.1c-0.4,0-0.8,0-1.2-0.1l-0.2-1.7c0.3,0.1,0.6,0.1,0.9,0.1
			c0.5,0,0.9-0.1,1.1-0.4c0.2-0.3,0.4-0.7,0.6-1.1L690.2,927.4z"/>
	</g>
</g>
<g>
	<path fill="#50A7B7" d="M1045.3,714.2c0,0-0.1,3,2.8,3c3.7,0,34,0,34,0l0-27.8c0,0-0.5-4.6,4-4.6h14.1c5.3,0,4.9,4.6,4.9,4.6
		l0,27.8h33.2c3.8,0,3.6-3.8,3.6-3.8v-51.3l-46.9-41.7l-49.7,41.7V714.2z M1045.3,714.2"/>
	<path fill="#50A7B7" d="M1027,658.2c0,0,4.2,7.8,13.4,0l55-46.5l51.6,46.3c10.7,7.7,14.7,0,14.7,0l-66.3-60L1027,658.2z
		 M1027,658.2"/>
	<path fill="#50A7B7" d="M1145.8,611.5h-13.3l0,16.1l13.2,11.2V611.5z M1145.8,611.5"/>
</g>
<path fill="#FFFFFF" d="M321.1,322.6H171.7v-52.8L130.6,142c-0.5-0.3-1.4-1-2.8-2.1c-1.4-1.1-2.8-2.2-4.3-3.3
	c-1.5-1.1-2.8-2.2-4.1-3.3c-1.3-1-2.2-1.8-2.7-2.3c-1.5-1.3-2.2-2.4-2.2-3.2v-1.7c0-0.3,0-0.9,0-1.7c0-0.8,0.1-1.2,0.2-1.2
	c0.3-0.8,1-1.7,2-2.7c1-1,1.6-1.4,2-1.2l1.9,1c0.2,0,0.9,0.5,2.3,1.6c1.4,1.1,3,2.3,5,3.8c1.9,1.5,3.9,3,5.9,4.6
	c1.9,1.6,3.6,2.9,4.9,3.9c0.8,0.6,1.4,1.2,1.8,1.7c0.4,0.5,0.8,1.2,1.1,2.2l11.9,37.2L362.5,187l-25.1,86.4H183.1v38.5h138V322.6z
	 M346.7,197.7c-4.2-0.6-8.5-1.1-12.8-1.2c-4.3-0.2-8.5-0.3-12.8-0.3v16.3h21.7c0.2,0,0.3-0.3,0.5-0.8c0.2-0.6,0.3-1,0.5-1.3
	c0.2-0.5,0.4-1.3,0.7-2.3c0.3-1.1,0.7-2.1,1-3.3c0.3-1.1,0.6-2.2,0.8-3.2c0.3-1,0.4-1.7,0.4-2.2v-0.7V197.7z M321.1,220.4v15.8H336
	c0.5-1,0.8-1.6,1-2c0.2-0.5,0.5-1.4,0.9-2.7c0.4-1.3,0.8-2.7,1.1-4.1c0.3-1.5,0.7-2.9,1.1-4.3c0.4-1.4,0.7-2.3,0.8-2.8H321.1z
	 M321.1,244.2V262h7.8l5.1-17.8H321.1z M317.4,363c-3.8,3.6-8.5,5.4-14,5.4c-5.7,0-10.3-1.9-13.9-5.6c-3.6-3.7-5.4-8.4-5.4-14.1
	c0-5,1.9-9.3,5.6-12.9c3.7-3.6,8.2-5.3,13.4-5.3c5.5,0,10.2,1.7,14.1,5.2c3.9,3.5,5.8,8,5.8,13.5C323.1,354.8,321.2,359.5,317.4,363
	z M310.3,195.3c-1.4-0.2-2.8-0.3-4.3-0.4c-1.5-0.1-2.8-0.2-4.1-0.2c-1.3-0.1-2.2-0.1-2.7-0.1c-0.3,0-0.9,0-1.6-0.1
	c-0.7-0.1-1.2-0.1-1.3-0.1v18.2h16.8v-17C312.6,195.6,311.7,195.5,310.3,195.3z M296.3,220.4v15.8h16.8v-15.8H296.3z M296.3,244.2
	V262h16.8v-17.8H296.3z M270.3,212.6h17v-18c0-0.2-0.8-0.4-2.3-0.6c-1.5-0.3-2.7-0.4-3.5-0.4c-1,0-2.8,0-5.6-0.1
	c-2.8-0.1-4.6-0.1-5.6-0.1V212.6z M270.3,220.4v15.8h17v-15.8H270.3z M270.3,244.2V262h17v-17.8H270.3z M245.4,192.6v20h17v-20
	H245.4z M245.4,220.4v15.8h17v-15.8H245.4z M245.4,244.2V262h17v-17.8H245.4z M219.9,190.7v21.9h16.8v-21.2
	C231.2,190.9,225.6,190.7,219.9,190.7z M219.9,220.4v15.8h16.8v-15.8H219.9z M219.9,244.2V262h16.8v-17.8H219.9z M195.1,212.6h17
	v-21.9c0-0.2-0.4-0.3-1.2-0.5c-0.8-0.2-1.5-0.3-2-0.5c-0.5,0-1.4,0-2.7-0.1c-1.3-0.1-2.7-0.1-4.1-0.1c-1.4,0-2.9,0-4.3-0.1
	c-1.4-0.1-2.3-0.1-2.8-0.1V212.6z M195.1,220.4v15.8h17v-15.8H195.1z M195.1,244.2V262h17v-17.8H195.1z M209.4,357.3
	c-1.1,2.2-2.6,4.1-4.5,5.8c-1.9,1.7-4,3-6.5,3.9c-2.4,0.9-4.9,1.3-7.5,1.3c-2.4,0-4.8-0.5-7.2-1.5c-2.4-1-4.5-2.3-6.3-3.9
	c-1.9-1.6-3.4-3.6-4.5-5.8c-1.1-2.3-1.7-4.7-1.7-7.3c0-2.6,0.6-5.1,1.7-7.5c1.1-2.4,2.6-4.5,4.4-6.2c1.8-1.7,3.9-3.1,6.2-4.1
	c2.4-1.1,4.8-1.6,7.4-1.6c5.5,0,10.3,1.9,14.2,5.7c4,3.8,6,8.4,6,13.8C211.1,352.6,210.6,355.1,209.4,357.3z M175.6,187.6
	c-2.8-0.1-6.2-0.1-10.2-0.1h-1.5c-0.8,0-1.7,0-2.6,0.1c-0.9,0.1-1.8,0.1-2.6,0.1h-1.2l7.8,24.8H186v-23.9
	C181.8,188.1,178.3,187.7,175.6,187.6z M168,220.4c0,0.2,0.1,0.5,0.2,1c0.2,0.5,0.4,1.3,0.7,2.6c0.3,1.2,0.7,2.5,1.2,3.9
	c0.5,1.4,0.9,2.7,1.3,3.9c0.4,1.2,0.7,2.1,0.8,2.6c0.2,0.3,0.3,0.7,0.5,1.2c0.2,0.5,0.3,0.7,0.5,0.7H186v-15.8H168z M176.1,244.2
	c0,1.8,0.4,3.7,1.2,5.8c0.3,1.1,0.8,2.7,1.5,4.7c0.7,2,1.2,3.7,1.7,5c0.5,1.3,0.7,2,0.7,2.2h4.9v-17.8H176.1z"/>
<g>
	<g>
		<g>
			<path fill="#FFFFFF" d="M612,276.5l-14-115.3c-0.2-1.7,0.4-3.3,1.6-4.5c1.2-1.2,2.8-1.8,4.5-1.5l231,29.5c1.6,0.2,3,1.1,3.9,2.5
				c0.9,1.4,1.1,3.1,0.5,4.6l-28.4,85.8c-0.8,2.2-2.8,3.7-5.2,3.7H617.4C614.6,281.3,612.3,279.3,612,276.5z M827.2,194.7
				l-217.5-27.8l12.6,103.6h179.9L827.2,194.7z"/>
		</g>
	</g>
	<g>
		<g>
			<path fill="#FFFFFF" d="M598.9,163.7l8.9-6.2c-0.4-0.5-9-12.8-25.3-16.2l-2.2,10.6C592.2,154.4,598.9,163.6,598.9,163.7z"/>
		</g>
	</g>
	<g>
		<g>
			<path fill="#FFFFFF" d="M562.1,145.5c0,8.2,6.7,14.9,14.9,14.9c8.2,0,14.9-6.7,14.9-14.9c0-8.2-6.7-14.9-14.9-14.9
				C568.8,130.6,562.1,137.3,562.1,145.5z"/>
		</g>
	</g>
	<g>
		<g>
			<path fill="#FFFFFF" d="M833,322c1.4,0,2.8-0.5,3.8-1.6c2.1-2.1,2.2-5.6,0-7.7c-11.3-11.4-28.5-11.5-29.2-11.5H612.8l9.6-23.2
				c1.1-2.8-0.2-6-2.9-7.1c-2.8-1.2-5.9,0.2-7.1,2.9l-12.7,30.7c-0.7,1.7-0.5,3.6,0.5,5.1c1,1.5,2.7,2.4,4.5,2.4h203
				c0.1,0,13.4,0.2,21.5,8.3C830.3,321.5,831.7,322,833,322z"/>
		</g>
	</g>
	<g>
		<g>
			<path fill="#FFFFFF" d="M605.6,339.8c0,9.6,7.8,17.4,17.4,17.4c9.6,0,17.4-7.8,17.4-17.4c0-9.6-7.8-17.4-17.4-17.4
				C613.4,322.4,605.6,330.1,605.6,339.8z"/>
		</g>
	</g>
	<g>
		<g>
			<path fill="#FFFFFF" d="M775.3,339.8c0,9.6,7.8,17.4,17.4,17.4c9.6,0,17.4-7.8,17.4-17.4c0-9.6-7.8-17.4-17.4-17.4
				C783.1,322.4,775.3,330.1,775.3,339.8z"/>
		</g>
	</g>
	<g>
		<g>
			<polygon fill="#FFFFFF" points="826.5,215.9 827,210.5 605,187.1 604.4,192.5 			"/>
		</g>
	</g>
	<g>
		<g>
			<polygon fill="#FFFFFF" points="817.2,235.8 817.6,230.5 605.8,216.3 605.4,221.7 			"/>
		</g>
	</g>
	<g>
		<g>
			<polygon fill="#FFFFFF" points="789.3,276.7 815.8,188.2 810.6,186.7 784.1,275.1 			"/>
		</g>
		<g>
			<polygon fill="#FFFFFF" points="770.4,276.2 792.7,185.1 787.4,183.8 765.1,274.9 			"/>
		</g>
		<g>
			<polygon fill="#FFFFFF" points="751.5,275.7 769.5,182 764.2,181 746.2,274.7 			"/>
		</g>
		<g>
			<polygon fill="#FFFFFF" points="732.6,275.2 746.4,178.9 741.1,178.2 727.3,274.5 			"/>
		</g>
		<g>
			<polygon fill="#FFFFFF" points="713.8,274.8 723.3,175.9 717.9,175.3 708.4,274.3 			"/>
		</g>
		<g>
			<polygon fill="#FFFFFF" points="694.9,274.3 700.2,172.8 694.8,172.5 689.5,274 			"/>
		</g>
		<g>
			<polygon fill="#FFFFFF" points="676,273.9 677,169.7 671.6,169.7 670.6,273.8 			"/>
		</g>
		<g>
			<polygon fill="#FFFFFF" points="651.6,273.6 657.1,273.4 653.9,166.6 648.5,166.8 			"/>
		</g>
		<g>
			<polygon fill="#FFFFFF" points="632.8,273.4 638.2,273 630.7,163.6 625.3,163.9 			"/>
		</g>
	</g>
	<g>
		<g>
			<polygon fill="#FFFFFF" points="813.1,256.9 813.2,251.5 614.1,245.5 613.9,250.9 			"/>
		</g>
	</g>
	<rect x="613.9" y="317" fill="#FFFFFF" width="18.1" height="22.8"/>
	<rect x="783.6" y="317" fill="#FFFFFF" width="18.1" height="22.8"/>
</g>
<g>
	<rect x="1163.8" y="234.3" fill="#FFFFFF" width="59.3" height="31.4"/>
	<polygon fill="#FFFFFF" points="1147.7,181.4 1099.4,181.4 1103,218.2 1147.7,218.2 	"/>
	<polygon fill="#FFFFFF" points="1147.7,265.7 1147.7,234.3 1104.6,234.3 1107.6,265.7 	"/>
	<polygon fill="#FFFFFF" points="1147.7,133.9 1094.8,133.9 1097.9,165.3 1147.7,165.3 	"/>
	<polygon fill="#FFFFFF" points="1239.1,265.7 1271.2,265.7 1277.3,234.3 1239.1,234.3 	"/>
	<rect x="1163.8" y="133.9" fill="#FFFFFF" width="59.3" height="31.4"/>
	<rect x="1163.8" y="181.4" fill="#FFFFFF" width="59.3" height="36.9"/>
	<polygon fill="#FFFFFF" points="1239.1,165.3 1290.7,165.3 1296.9,133.9 1239.1,133.9 	"/>
	<polygon fill="#FFFFFF" points="1239.1,218.2 1280.4,218.2 1287.6,181.4 1239.1,181.4 	"/>
	<polygon fill="#FFFFFF" points="1078.1,125.9 1029.9,125.9 1029.9,142 1063.4,142 1076.2,297.7 1271.2,297.7 1271.2,281.7 
		1091,281.7 	"/>
	<path fill="#FFFFFF" d="M1101.6,312.9c13.5,0,24.5,10.9,24.5,24.5c0,13.5-10.9,24.5-24.5,24.5c-13.5,0-24.5-11-24.5-24.5
		C1077.2,323.8,1088.1,312.9,1101.6,312.9z"/>
	<path fill="#FFFFFF" d="M1241.9,312.9c13.5,0,24.5,10.9,24.5,24.5c0,13.5-10.9,24.5-24.5,24.5c-13.5,0-24.4-11-24.4-24.5
		C1217.5,323.8,1228.4,312.9,1241.9,312.9z"/>
</g>
<g>
	<path fill="#FFFFFF" d="M192.9,604.6l-48.3,63.5h31l36.9-48.6C203.8,618.2,196.5,612.6,192.9,604.6z"/>
	<path fill="#FFFFFF" d="M216.6,611.5c0.7,0,1.4,0,2.1-0.1c0.7-0.1,1.3-0.2,2-0.3c8.2-1.9,13.8-9.3,13.7-17.4c0-0.2,0-0.4,0-0.6
		c0-1.1-0.2-2.2-0.4-3.3c-1.9-8.2-9.2-13.8-17.3-13.8c-1.3,0-2.7,0.2-4.1,0.5c-9.1,2.1-14.9,10.9-13.5,20c0.1,0.4,0.1,0.9,0.2,1.3
		C201.2,606,208.5,611.5,216.6,611.5z"/>
	<path fill="#FFFFFF" d="M301.4,668.1h31.1l-48.3-63.5c-3.6,8-11,13.6-19.6,14.9L301.4,668.1z"/>
	<path fill="#FFFFFF" d="M264.4,576.4c-1.4-0.3-2.7-0.5-4.1-0.5c-8.1,0-15.4,5.6-17.3,13.8c-0.3,1.1-0.4,2.2-0.4,3.3
		c0,0.2,0,0.4,0,0.6c0,8.1,5.5,15.5,13.7,17.4c0.7,0.2,1.3,0.3,2,0.3c0.7,0.1,1.4,0.1,2.1,0.1c8.1,0,15.4-5.6,17.3-13.8
		c0.1-0.5,0.2-0.9,0.2-1.3C279.4,587.3,273.6,578.5,264.4,576.4z"/>
	<polygon fill="#FFFFFF" points="113.4,675.4 146.3,800.3 330.7,800.3 363.7,675.4 337.9,675.4 306.9,675.4 170.1,675.4 
		139.1,675.4 	"/>
</g>
<g>
	<path fill="#FFFFFF" d="M653.9,601.2L604,666.6h32l38.1-50C665.2,615.2,657.6,609.4,653.9,601.2z"/>
	<path fill="#FFFFFF" d="M678.3,608.4c0.7,0,1.4,0,2.1-0.1c0.7-0.1,1.4-0.2,2-0.4c8.5-2,14.2-9.6,14.2-18c0-0.2,0-0.4,0-0.6
		c0-1.1-0.2-2.3-0.5-3.4c-2-8.5-9.5-14.2-17.9-14.2c-1.4,0-2.8,0.2-4.2,0.5c-9.4,2.2-15.4,11.3-14,20.7c0.1,0.5,0.1,0.9,0.3,1.4
		C662.4,602.7,670,608.4,678.3,608.4z"/>
	<path fill="#FFFFFF" d="M765.8,666.6h32L748,601.2c-3.7,8.2-11.3,14.1-20.3,15.5L765.8,666.6z"/>
	<path fill="#FFFFFF" d="M727.7,572.2c-1.4-0.3-2.8-0.5-4.2-0.5c-8.3,0-15.9,5.7-17.9,14.2c-0.3,1.1-0.4,2.3-0.5,3.4
		c0,0.3,0,0.5,0,0.8c0,8.3,5.7,15.9,14.2,17.9c0.7,0.2,1.4,0.3,2,0.4c0.7,0.1,1.4,0.1,2.1,0.1c8.3,0,15.9-5.7,17.9-14.2
		c0.1-0.5,0.2-0.9,0.2-1.4C743.1,583.5,737.1,574.4,727.7,572.2z"/>
	<path fill="#FFFFFF" d="M571.8,674.1l34,130.4h190.3l34-130.4h-26.5h-32H630.4h-32H571.8z M688,752.1c2.7-40.6,45.9-65.1,45.9-65.1
		C718.5,707.7,719,753,719,753l17.1-0.1l-33.6,37.4l-32.2-38.5L688,752.1z"/>
</g>
<g>
	<path fill="#FFFFFF" d="M1116.3,601.2l-49.8,65.4h32l38.1-50C1127.6,615.2,1120,609.4,1116.3,601.2z"/>
	<path fill="#FFFFFF" d="M1142.9,608.3c0.7-0.1,1.4-0.2,2-0.4c8.5-2,14.2-9.6,14.2-18c0-0.2,0-0.4,0-0.6c-0.1-1.1-0.2-2.3-0.5-3.4
		c-2-8.5-9.5-14.2-17.9-14.2c-1.4,0-2.8,0.2-4.2,0.5c-9.4,2.2-15.4,11.3-14,20.7c0.1,0.5,0.1,0.9,0.3,1.4c2,8.5,9.5,14.2,17.9,14.2
		C1141.4,608.5,1142.2,608.4,1142.9,608.3z"/>
	<path fill="#FFFFFF" d="M1260.3,666.6l-49.8-65.4c-3.7,8.2-11.3,14.1-20.3,15.5l38.1,50H1260.3z"/>
	<path fill="#FFFFFF" d="M1181.8,608c0.7,0.2,1.4,0.3,2,0.4c0.7,0.1,1.4,0.1,2.1,0.1c8.3,0,15.9-5.7,17.9-14.2
		c0.1-0.5,0.2-0.9,0.3-1.4c1.4-9.4-4.6-18.5-14-20.7c-1.4-0.3-2.8-0.5-4.2-0.5c-8.3,0-15.9,5.7-17.9,14.2c-0.3,1.1-0.4,2.3-0.5,3.4
		c0,0.2,0,0.4,0,0.6C1167.5,598.4,1173.3,606,1181.8,608z"/>
	<path fill="#FFFFFF" d="M1266,674.1h-32h-141.1h-32h-26.5l34,130.4h190.3l34-130.4H1266z M1193.7,792.8c0,0-44-24.9-46.7-66.3
		l-18,0.3l32.8-39.2l34.2,38.1l-17.4-0.1C1178.6,725.6,1178,771.7,1193.7,792.8z"/>
</g>
</svg>
